<?xml version="1.0" standalone="no"?>
<!DOCTYPE svg PUBLIC "-//W3C//DTD SVG 20010904//EN"
 "http://www.w3.org/TR/2001/REC-SVG-20010904/DTD/svg10.dtd">
<svg version="1.0" xmlns="http://www.w3.org/2000/svg"
 width="1200.000000pt" height="1200.000000pt" viewBox="0 0 1200.000000 1200.000000"
 preserveAspectRatio="xMidYMid meet">
<metadata>
Created by potrace 1.11, written by Peter Selinger 2001-2013
</metadata>
<g transform="translate(0.000000,1200.000000) scale(0.100000,-0.100000)"
fill="#000000" stroke="none">
<path d="M5718 11995 c-2 -1 -55 -6 -118 -9 -63 -4 -128 -8 -145 -11 -16 -2
-55 -6 -85 -9 -123 -12 -212 -24 -385 -52 -161 -26 -413 -84 -685 -158 -37
-10 -242 -77 -305 -100 -161 -57 -285 -107 -465 -187 -108 -48 -400 -197 -504
-257 -49 -29 -93 -52 -97 -52 -5 0 -9 -4 -9 -10 0 -5 -5 -10 -12 -10 -6 0 -26
-11 -44 -25 -18 -14 -36 -25 -39 -25 -18 0 -432 -289 -521 -364 -10 -8 -48
-39 -84 -67 -194 -154 -558 -503 -711 -679 -99 -115 -164 -193 -219 -265 -30
-38 -59 -75 -65 -82 -82 -99 -281 -395 -400 -595 -124 -208 -289 -543 -391
-793 -108 -264 -256 -744 -289 -934 -3 -19 -8 -37 -10 -40 -2 -4 -13 -60 -25
-126 -23 -128 -24 -133 -39 -223 -14 -81 -27 -183 -37 -287 -3 -38 -8 -78 -10
-87 -18 -97 -26 -722 -11 -933 10 -150 17 -236 23 -274 3 -19 7 -53 10 -75 2
-23 11 -90 20 -151 9 -60 18 -119 19 -130 11 -78 101 -490 110 -505 2 -3 6
-18 8 -31 21 -114 212 -674 266 -779 4 -8 25 -55 46 -105 83 -194 259 -524
403 -754 424 -677 1015 -1294 1672 -1747 679 -468 1418 -782 2233 -949 18 -4
238 -42 287 -49 105 -17 129 -20 250 -31 47 -4 94 -9 105 -11 126 -24 927 -24
1075 0 14 2 59 7 100 11 41 3 102 10 135 15 33 5 80 11 105 14 25 3 54 8 65
10 11 2 54 9 95 16 79 13 287 56 311 64 8 3 25 7 39 10 36 6 213 52 295 76 39
12 75 22 80 24 33 8 251 82 305 103 320 124 322 125 565 243 249 121 459 242
700 403 112 74 344 242 355 257 3 3 33 27 67 53 34 26 68 53 75 60 7 6 45 39
83 72 118 100 164 144 330 310 224 225 352 370 532 605 432 566 781 1254 973
1915 17 61 38 130 45 155 8 25 16 56 19 70 3 14 15 66 27 115 11 50 23 101 25
115 3 14 7 33 10 43 3 10 7 31 9 48 3 17 7 38 9 48 3 9 8 31 11 49 3 17 7 44
10 60 9 57 14 90 25 167 6 44 13 96 16 115 3 19 7 62 10 95 3 33 7 76 9 95 28
228 27 826 -1 1095 -8 82 -25 228 -30 260 -3 17 -7 44 -9 60 -53 365 -143 734
-260 1075 -44 128 -121 329 -150 395 -225 504 -425 851 -715 1241 -186 249
-327 411 -585 670 -560 562 -1220 998 -1979 1309 -147 60 -498 180 -631 215
-290 77 -515 125 -730 155 -22 3 -51 8 -65 10 -14 3 -50 7 -80 10 -30 3 -71 8
-90 10 -19 2 -67 7 -105 10 -39 4 -90 9 -115 11 -50 6 -706 14 -712 9z"/>
</g>
</svg>
